<?xml version="1.0" encoding="UTF-8" standalone="no"?>
<svg
   width="24"
   height="24"
   viewBox="0 0 24 24"
   fill="none"
   version="1.1"
   id="svg6"
   sodipodi:docname="copy.svg"
   inkscape:version="1.1 (1:1.1+202105261517+ce6663b3b7)"
   xmlns:inkscape="http://www.inkscape.org/namespaces/inkscape"
   xmlns:sodipodi="http://sodipodi.sourceforge.net/DTD/sodipodi-0.dtd"
   xmlns="http://www.w3.org/2000/svg"
   xmlns:svg="http://www.w3.org/2000/svg">
  <defs
     id="defs10" />
  <sodipodi:namedview
     id="namedview8"
     pagecolor="#505050"
     bordercolor="#eeeeee"
     borderopacity="1"
     inkscape:pageshadow="0"
     inkscape:pageopacity="0"
     inkscape:pagecheckerboard="0"
     showgrid="false"
     inkscape:zoom="28.416667"
     inkscape:cx="12"
     inkscape:cy="12"
     inkscape:window-width="1920"
     inkscape:window-height="1029"
     inkscape:window-x="0"
     inkscape:window-y="0"
     inkscape:window-maximized="1"
     inkscape:current-layer="svg6" />
  <path
     d="M6 5H14C14.5523 5 15 5.44772 15 6V7H17V6C17 4.34315 15.6569 3 14 3H6C4.34315 3 3 4.34315 3 6V14C3 15.6569 4.34315 17 6 17H7V15H6C5.44772 15 5 14.5523 5 14V6C5 5.44772 5.44772 5 6 5Z"
     fill="black"
     id="path2"
     style="fill:#987b01;fill-opacity:1" />
  <path
     fill-rule="evenodd"
     clip-rule="evenodd"
     d="M18 9H10C9.44772 9 9 9.44772 9 10V18C9 18.5523 9.44772 19 10 19H18C18.5523 19 19 18.5523 19 18V10C19 9.44772 18.5523 9 18 9ZM10 7C8.34315 7 7 8.34315 7 10V18C7 19.6569 8.34315 21 10 21H18C19.6569 21 21 19.6569 21 18V10C21 8.34315 19.6569 7 18 7H10Z"
     fill="black"
     id="path4"
     style="fill:#987b01;fill-opacity:1" />
</svg>
