<?xml version="1.0" encoding="UTF-8" standalone="no"?>
<svg
   width="24"
   height="24"
   viewBox="0 0 24 24"
   fill="none"
   version="1.1"
   id="svg63"
   sodipodi:docname="facebook.svg"
   inkscape:version="1.1 (1:1.1+202105261517+ce6663b3b7)"
   xmlns:inkscape="http://www.inkscape.org/namespaces/inkscape"
   xmlns:sodipodi="http://sodipodi.sourceforge.net/DTD/sodipodi-0.dtd"
   xmlns="http://www.w3.org/2000/svg"
   xmlns:svg="http://www.w3.org/2000/svg">
  <defs
     id="defs67" />
  <sodipodi:namedview
     id="namedview65"
     pagecolor="#505050"
     bordercolor="#eeeeee"
     borderopacity="1"
     inkscape:pageshadow="0"
     inkscape:pageopacity="0"
     inkscape:pagecheckerboard="0"
     showgrid="false"
     inkscape:zoom="34.583333"
     inkscape:cx="12"
     inkscape:cy="12"
     inkscape:window-width="1920"
     inkscape:window-height="1029"
     inkscape:window-x="0"
     inkscape:window-y="0"
     inkscape:window-maximized="1"
     inkscape:current-layer="svg63" />
  <path
     fill-rule="evenodd"
     clip-rule="evenodd"
     d="M13 7C13 5.89543 13.8954 5 15 5H16C16.5523 5 17 4.55228 17 4C17 3.44772 16.5523 3 16 3H15C12.7909 3 11 4.79086 11 7V9H8.5C7.94772 9 7.5 9.44772 7.5 10C7.5 10.5523 7.94772 11 8.5 11H11V20C11 20.5523 11.4477 21 12 21C12.5523 21 13 20.5523 13 20V11H15.5C16.0523 11 16.5 10.5523 16.5 10C16.5 9.44772 16.0523 9 15.5 9H13V7Z"
     fill="black"
     id="path61"
     style="fill:#987b01;fill-opacity:1" />
</svg>
