<?xml version="1.0" encoding="UTF-8" standalone="no"?>
<svg
   width="24"
   height="24"
   viewBox="0 0 24 24"
   fill="none"
   version="1.1"
   id="svg167"
   sodipodi:docname="link.svg"
   inkscape:version="1.1 (1:1.1+202105261517+ce6663b3b7)"
   xmlns:inkscape="http://www.inkscape.org/namespaces/inkscape"
   xmlns:sodipodi="http://sodipodi.sourceforge.net/DTD/sodipodi-0.dtd"
   xmlns="http://www.w3.org/2000/svg"
   xmlns:svg="http://www.w3.org/2000/svg">
  <defs
     id="defs171" />
  <sodipodi:namedview
     id="namedview169"
     pagecolor="#505050"
     bordercolor="#eeeeee"
     borderopacity="1"
     inkscape:pageshadow="0"
     inkscape:pageopacity="0"
     inkscape:pagecheckerboard="0"
     showgrid="false"
     inkscape:zoom="28.416667"
     inkscape:cx="5.2785924"
     inkscape:cy="12"
     inkscape:window-width="1920"
     inkscape:window-height="1029"
     inkscape:window-x="0"
     inkscape:window-y="0"
     inkscape:window-maximized="1"
     inkscape:current-layer="svg167" />
  <path
     fill-rule="evenodd"
     clip-rule="evenodd"
     d="M2 12C2 9.23858 4.23858 7 7 7H10C10.5523 7 11 7.44772 11 8C11 8.55228 10.5523 9 10 9H7C5.34315 9 4 10.3431 4 12C4 13.6569 5.34315 15 7 15H10C10.5523 15 11 15.4477 11 16C11 16.5523 10.5523 17 10 17H7C4.23858 17 2 14.7614 2 12Z"
     fill="black"
     id="path161"
     style="fill:#987b01;fill-opacity:1" />
  <path
     fill-rule="evenodd"
     clip-rule="evenodd"
     d="M13 8C13 7.44772 13.4477 7 14 7H17C19.7614 7 22 9.23858 22 12C22 14.7614 19.7614 17 17 17H14C13.4477 17 13 16.5523 13 16C13 15.4477 13.4477 15 14 15H17C18.6569 15 20 13.6569 20 12C20 10.3431 18.6569 9 17 9H14C13.4477 9 13 8.55228 13 8Z"
     fill="black"
     id="path163"
     style="fill:#987b01;fill-opacity:1" />
  <path
     fill-rule="evenodd"
     clip-rule="evenodd"
     d="M8 12C8 11.4477 8.44772 11 9 11H15C15.5523 11 16 11.4477 16 12C16 12.5523 15.5523 13 15 13H9C8.44772 13 8 12.5523 8 12Z"
     fill="black"
     id="path165"
     style="fill:#987b01;fill-opacity:1" />
</svg>
