<?xml version="1.0" encoding="UTF-8" standalone="no"?>
<svg
   width="24"
   height="24"
   viewBox="0 0 24 24"
   fill="none"
   version="1.1"
   id="svg179"
   sodipodi:docname="linkedin.svg"
   inkscape:version="1.1 (1:1.1+202105261517+ce6663b3b7)"
   xmlns:inkscape="http://www.inkscape.org/namespaces/inkscape"
   xmlns:sodipodi="http://sodipodi.sourceforge.net/DTD/sodipodi-0.dtd"
   xmlns="http://www.w3.org/2000/svg"
   xmlns:svg="http://www.w3.org/2000/svg">
  <defs
     id="defs183" />
  <sodipodi:namedview
     id="namedview181"
     pagecolor="#505050"
     bordercolor="#eeeeee"
     borderopacity="1"
     inkscape:pageshadow="0"
     inkscape:pageopacity="0"
     inkscape:pagecheckerboard="0"
     showgrid="false"
     inkscape:zoom="28.416667"
     inkscape:cx="5.2785924"
     inkscape:cy="12"
     inkscape:window-width="1920"
     inkscape:window-height="1029"
     inkscape:window-x="0"
     inkscape:window-y="0"
     inkscape:window-maximized="1"
     inkscape:current-layer="svg179" />
  <path
     fill-rule="evenodd"
     clip-rule="evenodd"
     d="M6 8C6.55228 8 7 8.44772 7 9V18C7 18.5523 6.55228 19 6 19C5.44772 19 5 18.5523 5 18V9C5 8.44772 5.44772 8 6 8Z"
     fill="black"
     id="path173"
     style="fill:#987b01;fill-opacity:1" />
  <path
     fill-rule="evenodd"
     clip-rule="evenodd"
     d="M11 8.99963C10.9998 8.44752 10.5522 8 10 8C9.44772 8 9 8.44772 9 9V13V18C9 18.5523 9.44772 19 10 19C10.5523 19 11 18.5523 11 18V13C11 11.3431 12.3431 10 14 10C15.6569 10 17 11.3431 17 13V18C17 18.5523 17.4477 19 18 19C18.5523 19 19 18.5523 19 18V13C19 10.2386 16.7614 8 14 8C12.8744 8 11.8357 8.37194 11 8.99963Z"
     fill="black"
     id="path175"
     style="fill:#987b01;fill-opacity:1" />
  <path
     d="M7 6C7 6.55228 6.55228 7 6 7C5.44772 7 5 6.55228 5 6C5 5.44772 5.44772 5 6 5C6.55228 5 7 5.44772 7 6Z"
     fill="black"
     id="path177"
     style="fill:#987b01;fill-opacity:1" />
</svg>
