<?xml version="1.0" encoding="UTF-8" standalone="no"?>
<svg
   width="24"
   height="24"
   viewBox="0 0 24 24"
   fill="none"
   version="1.1"
   id="svg195"
   sodipodi:docname="twitter.svg"
   inkscape:version="1.1 (1:1.1+202105261517+ce6663b3b7)"
   xmlns:inkscape="http://www.inkscape.org/namespaces/inkscape"
   xmlns:sodipodi="http://sodipodi.sourceforge.net/DTD/sodipodi-0.dtd"
   xmlns="http://www.w3.org/2000/svg"
   xmlns:svg="http://www.w3.org/2000/svg">
  <defs
     id="defs199" />
  <sodipodi:namedview
     id="namedview197"
     pagecolor="#505050"
     bordercolor="#eeeeee"
     borderopacity="1"
     inkscape:pageshadow="0"
     inkscape:pageopacity="0"
     inkscape:pagecheckerboard="0"
     showgrid="false"
     inkscape:zoom="28.416667"
     inkscape:cx="5.2785924"
     inkscape:cy="12.914956"
     inkscape:window-width="1920"
     inkscape:window-height="1029"
     inkscape:window-x="0"
     inkscape:window-y="0"
     inkscape:window-maximized="1"
     inkscape:current-layer="svg195" />
  <path
     d="M8.99995 21.1C6.59995 21.1 4.09995 20.5 2.09995 19.4C1.69995 19.2 1.49995 18.8 1.59995 18.3C1.69995 17.9 1.99995 17.5 2.49995 17.5C4.19995 17.3 5.49995 17 6.69995 16.4C3.79995 14.2 2.29995 10.2 2.49995 5C2.49995 4.6 2.79995 4.2 3.09995 4.1C3.49995 3.9 3.89995 4 4.19995 4.3C6.19995 6.3 8.59995 8.4 10.8999 8.2C10.8999 7.2 10.9999 5.6 11.8999 4.5C12.6999 3.5 13.8999 3 15.3999 3C17.0999 3 18.1999 4.1 18.7999 4.8L21.0999 4C21.4999 3.9 21.9999 4 22.1999 4.3C22.4999 4.6 22.4999 5.1 22.1999 5.5L20.3999 8.2C20.5999 9.4 20.7999 13 18.0999 16.6C15.8999 19.8 12.3999 21.1 8.99995 21.1ZM6.09995 18.7C9.89995 19.6 14.0999 18.9 16.6999 15.4C19.3999 11.9 18.5999 8.4 18.4999 8.2C18.3999 7.9 18.4999 7.6 18.5999 7.4L18.9999 6.8L18.7999 6.9C18.2999 7.1 17.7999 6.8 17.5999 6.4C17.5999 6.4 16.7999 5 15.4999 5C14.5999 5 13.8999 5.2 13.4999 5.8C12.7999 6.7 12.8999 8.3 12.9999 8.9C13.0999 9.4 12.7999 9.9 12.2999 10C9.39995 11 6.49995 9.1 4.49995 7.4C4.79995 10.6 5.79995 14 8.99995 15.6C9.29995 15.8 9.49995 16.1 9.49995 16.4C9.49995 16.8 9.29995 17.1 8.99995 17.3C8.09995 17.9 7.09995 18.4 6.09995 18.7Z"
     fill="black"
     id="path193"
     style="fill:#987b01;fill-opacity:1" />
</svg>
