<?xml version="1.0" encoding="UTF-8" standalone="no"?>
<!-- Generator: Adobe Illustrator 18.1.1, SVG Export Plug-In . SVG Version: 6.00 Build 0)  -->

<svg
   version="1.1"
   id="Capa_1"
   x="0px"
   y="0px"
   viewBox="0 0 612 612"
   style="enable-background:new 0 0 612 612;"
   xml:space="preserve"
   sodipodi:docname="institution-logo-default.svg"
   inkscape:version="1.1 (1:1.1+202105261517+ce6663b3b7)"
   xmlns:inkscape="http://www.inkscape.org/namespaces/inkscape"
   xmlns:sodipodi="http://sodipodi.sourceforge.net/DTD/sodipodi-0.dtd"
   xmlns="http://www.w3.org/2000/svg"
   xmlns:svg="http://www.w3.org/2000/svg"><defs
   id="defs51" /><sodipodi:namedview
   id="namedview49"
   pagecolor="#505050"
   bordercolor="#eeeeee"
   borderopacity="1"
   inkscape:pageshadow="0"
   inkscape:pageopacity="0"
   inkscape:pagecheckerboard="0"
   showgrid="false"
   inkscape:zoom="1.1143791"
   inkscape:cx="307.79472"
   inkscape:cy="372.40469"
   inkscape:window-width="1920"
   inkscape:window-height="1029"
   inkscape:window-x="0"
   inkscape:window-y="0"
   inkscape:window-maximized="1"
   inkscape:current-layer="g14" />
<g
   id="g16">
	<g
   id="g14">
		<path
   d="m 127.18734,208.5973 h 357.61661 c 10.75581,0 14.64473,-14.19361 5.39096,-19.67378 L 311.38879,91.898551 c -3.32611,-1.966943 -7.4609,-1.966943 -10.78265,0 L 121.79638,188.91917 c -9.25377,5.48452 -5.36485,19.67813 5.39096,19.67813 z"
   id="path2"
   style="fill:#a39f8d;fill-opacity:1;stroke-width:0.725274" />
		<path
   d="m 161.5559,414.24799 c -4.12608,0 -7.47032,3.34351 -7.47032,7.47032 0,4.13044 3.34351,7.47467 7.47032,7.47467 h 48.74928 c 4.12609,0 7.47033,-3.34351 7.47033,-7.47467 0,-4.12608 -3.34352,-7.47032 -7.47033,-7.47032 h -7.24621 V 249.25108 h 7.24621 c 4.12609,0 7.47033,-3.34352 7.47033,-7.47032 0,-4.12681 -3.34352,-7.47468 -7.47033,-7.47468 H 161.5559 c -4.12608,0 -7.47032,3.34859 -7.47032,7.47468 0,4.12608 3.34351,7.47032 7.47032,7.47032 h 7.24621 v 164.99691 z"
   id="path4"
   style="fill:#a39f8d;fill-opacity:1;stroke-width:0.725274" />
		<path
   d="m 401.68611,414.24799 c -4.12608,0 -7.47032,3.34351 -7.47032,7.47032 0,4.13044 3.34351,7.47467 7.47032,7.47467 h 48.74929 c 4.13043,0 7.47467,-3.34351 7.47467,-7.47467 0,-4.12608 -3.34351,-7.47032 -7.47467,-7.47032 h -7.24186 V 249.25108 h 7.24186 c 4.13043,0 7.47467,-3.34352 7.47467,-7.47032 0,-4.12681 -3.34351,-7.47468 -7.47467,-7.47468 h -48.74929 c -4.12608,0 -7.47032,3.34859 -7.47032,7.47468 0,4.12608 3.34351,7.47032 7.47032,7.47032 h 7.24621 v 164.99691 z"
   id="path6"
   style="fill:#a39f8d;fill-opacity:1;stroke-width:0.725274" />
		<rect
   x="120.54456"
   y="452.03622"
   width="370.91086"
   height="27.300758"
   id="rect8"
   style="fill:#a39f8d;fill-opacity:1;stroke-width:0.725274" />
		<rect
   y="494.28122"
   width="443.86765"
   height="27.29641"
   id="rect10"
   style="fill:#a39f8d;fill-opacity:1;stroke-width:0.725274"
   x="84.066185" />
		<path
   d="m 296.00645,260.81122 v 12.65095 c -6.62973,0.74196 -12.58858,2.0518 -17.8722,3.93389 -5.28362,1.88643 -9.77234,4.36324 -13.45601,7.43405 -3.68801,3.07589 -6.5086,6.71894 -8.47555,10.93423 -1.96259,4.2153 -2.95041,9.03039 -2.95041,14.43513 0,6.63408 1.27431,12.03882 3.81349,16.21858 2.53483,4.17975 5.83845,7.53704 9.89274,10.07623 4.05428,2.53918 8.61915,4.44375 13.69752,5.71298 5.07837,1.26488 10.19662,2.27083 15.3555,3.00843 v 26.90259 c -4.1754,-0.0805 -8.02443,-0.30389 -11.54709,-0.67523 -3.52265,-0.36626 -6.87995,-0.858 -10.07623,-1.47086 -3.19193,-0.6172 -6.30335,-1.34973 -9.33427,-2.21281 -3.03528,-0.858 -6.14235,-1.86395 -9.33863,-3.00843 v 24.08199 c 4.66714,2.12796 10.54113,3.78666 17.62633,4.97103 7.08085,1.18945 14.64038,1.90457 22.66481,2.15044 v 12.03882 h 19.53525 v -12.65095 c 13.51838,-1.47956 23.93404,-5.20384 31.26584,-11.1801 7.33107,-5.98134 11.00168,-14.21102 11.00168,-24.69848 0,-6.55357 -1.25183,-11.9177 -3.7504,-16.0931 -2.50364,-4.1754 -5.73546,-7.55953 -9.70996,-10.13861 -3.9745,-2.57907 -8.47555,-4.55109 -13.50968,-5.89647 -5.03775,-1.34974 -10.13425,-2.4362 -15.29748,-3.25431 v -27.27827 c 10.89434,0.49608 22.64668,2.7894 35.2621,6.87994 v -24.31916 c -5.15888,-1.80158 -10.83197,-3.21876 -17.01856,-4.24212 -6.18223,-1.02336 -12.2622,-1.69424 -18.24354,-2.02497 v -12.28469 z m 0,60.19846 c -5.32423,-0.98347 -9.29801,-2.36947 -11.91335,-4.1754 -2.62404,-1.79723 -3.93388,-4.42127 -3.93388,-7.86342 0,-3.03092 1.14883,-5.54327 3.44215,-7.55518 2.29331,-2.00248 6.4281,-3.33481 12.40508,-3.99191 z m 31.02432,31.14906 c 2.50364,1.76604 3.75039,4.36325 3.75039,7.8054 0,6.2272 -5.08272,9.99137 -15.2351,11.29687 v -23.09853 c 5.15959,0.90297 8.98614,2.2353 11.48471,3.99626 z"
   id="path12"
   style="fill:#a39f8d;fill-opacity:1;stroke-width:0.725274" />
	</g>
</g>
<g
   id="g18">
</g>
<g
   id="g20">
</g>
<g
   id="g22">
</g>
<g
   id="g24">
</g>
<g
   id="g26">
</g>
<g
   id="g28">
</g>
<g
   id="g30">
</g>
<g
   id="g32">
</g>
<g
   id="g34">
</g>
<g
   id="g36">
</g>
<g
   id="g38">
</g>
<g
   id="g40">
</g>
<g
   id="g42">
</g>
<g
   id="g44">
</g>
<g
   id="g46">
</g>
</svg>
