<?xml version="1.0" standalone="no"?>
<!DOCTYPE svg PUBLIC "-//W3C//DTD SVG 20010904//EN"
 "http://www.w3.org/TR/2001/REC-SVG-20010904/DTD/svg10.dtd">
<svg version="1.0" xmlns="http://www.w3.org/2000/svg"
 width="700.000000pt" height="700.000000pt" viewBox="0 0 700.000000 700.000000"
 preserveAspectRatio="xMidYMid meet">
<metadata>
Created by potrace 1.14, written by Peter Selinger 2001-2017
</metadata>
<g transform="translate(0.000000,700.000000) scale(0.100000,-0.100000)"
fill="#000000" stroke="none">
<path d="M737 6990 c-335 -57 -599 -291 -704 -625 l-28 -90 -2 -2755 -2 -2755
25 -94 c85 -324 306 -549 631 -643 l78 -23 2765 0 2765 0 79 23 c238 69 413
203 543 417 40 65 89 203 101 285 9 58 9 5468 0 5536 -9 75 -59 212 -109 301
-30 54 -73 107 -139 173 -130 129 -242 191 -447 247 -38 10 -5496 13 -5556 3z"/>
</g>
</svg>
